<svg width="25" height="24" viewBox="0 0 25 24" fill="none" xmlns="http://www.w3.org/2000/svg">
<path d="M8.93499 16.5514L12.4229 13.0635L15.9108 16.5514L16.5968 15.8654L13.1089 12.3775L16.5968 8.88958L15.9108 8.20363L12.4229 11.6915L8.93499 8.20363L8.24904 8.88958L11.7369 12.3775L8.24904 15.8654L8.93499 16.5514ZM12.4258 21.0973C11.2205 21.0973 10.087 20.8686 9.0251 20.4113C7.96387 19.9534 7.04054 19.332 6.25511 18.5472C5.46969 17.7631 4.848 16.8407 4.39005 15.7801C3.9321 14.7196 3.70312 13.5863 3.70312 12.3804C3.70312 11.1751 3.93178 10.0416 4.38908 8.97969C4.84703 7.91846 5.4684 6.99513 6.25318 6.2097C7.03731 5.42428 7.95967 4.80259 9.02025 4.34464C10.0808 3.88669 11.2141 3.65771 12.42 3.65771C13.6253 3.65771 14.7588 3.88637 15.8207 4.34367C16.8819 4.80162 17.8053 5.42299 18.5907 6.20777C19.3761 6.9919 19.9978 7.91426 20.4558 8.97484C20.9137 10.0354 21.1427 11.1687 21.1427 12.3746C21.1427 13.5799 20.914 14.7134 20.4567 15.7753C19.9988 16.8365 19.3774 17.7599 18.5926 18.5453C17.8085 19.3307 16.8861 19.9524 15.8256 20.4104C14.765 20.8683 13.6317 21.0973 12.4258 21.0973Z" fill="#7C7A7A"/>
</svg>
