<svg width="15" height="15" viewBox="0 0 15 15" fill="none" xmlns="http://www.w3.org/2000/svg">
<path d="M12.8821 7.46948C12.8821 7.31419 12.9438 7.16525 13.0536 7.05544C13.1634 6.94562 13.3124 6.88393 13.4677 6.88393C13.623 6.88393 13.7719 6.94562 13.8817 7.05544C13.9915 7.16525 14.0532 7.31419 14.0532 7.46948V13.9105C14.0532 14.0658 13.9915 14.2148 13.8817 14.3246C13.7719 14.4344 13.623 14.4961 13.4677 14.4961H0.585551C0.430253 14.4961 0.281316 14.4344 0.171504 14.3246C0.0616919 14.2148 0 14.0658 0 13.9105V1.02842C0 0.873124 0.0616919 0.724187 0.171504 0.614375C0.281316 0.504563 0.430253 0.442871 0.585551 0.442871H7.02661C7.18191 0.442871 7.33085 0.504563 7.44066 0.614375C7.55047 0.724187 7.61216 0.873124 7.61216 1.02842C7.61216 1.18372 7.55047 1.33266 7.44066 1.44247C7.33085 1.55228 7.18191 1.61397 7.02661 1.61397H1.1711V13.325H12.8821V7.46948Z" fill="#2C55FF"/>
<path d="M6.25687 8.24243L7.22303 8.10424L13.1582 2.17026C13.2141 2.11625 13.2587 2.05164 13.2894 1.9802C13.3201 1.90876 13.3362 1.83192 13.3369 1.75417C13.3376 1.67642 13.3228 1.59932 13.2933 1.52735C13.2639 1.45539 13.2204 1.39001 13.1654 1.33504C13.1105 1.28006 13.0451 1.23658 12.9731 1.20714C12.9011 1.17769 12.824 1.16288 12.7463 1.16355C12.6685 1.16423 12.5917 1.18038 12.5203 1.21107C12.4488 1.24176 12.3842 1.28637 12.3302 1.34229L6.39389 7.27627L6.2557 8.24243H6.25687ZM13.9861 0.513153C14.1494 0.676288 14.2789 0.86999 14.3672 1.08319C14.4556 1.29639 14.5011 1.52491 14.5011 1.75569C14.5011 1.98647 14.4556 2.21499 14.3672 2.42819C14.2789 2.64139 14.1494 2.8351 13.9861 2.99823L7.91398 9.0704C7.82443 9.16027 7.70813 9.21863 7.58256 9.23669L5.65024 9.51307C5.56018 9.52601 5.46835 9.51778 5.38204 9.48904C5.29572 9.4603 5.21728 9.41185 5.15295 9.34752C5.08862 9.28319 5.04016 9.20475 5.01143 9.11843C4.98269 9.03211 4.97446 8.94028 4.98739 8.85023L5.26377 6.91791C5.28152 6.79248 5.33946 6.67619 5.4289 6.58649L11.5022 0.514324C11.8317 0.185003 12.2784 0 12.7442 0C13.21 0 13.6567 0.185003 13.9861 0.514324V0.513153Z" fill="#2C55FF"/>
</svg>
