<svg width="16" height="15" viewBox="0 0 16 15" fill="none" xmlns="http://www.w3.org/2000/svg">
<path d="M13.8499 7.46948C13.8499 7.31419 13.9116 7.16525 14.0214 7.05544C14.1312 6.94562 14.2802 6.88393 14.4354 6.88393C14.5907 6.88393 14.7397 6.94562 14.8495 7.05544C14.9593 7.16525 15.021 7.31419 15.021 7.46948V13.9105C15.021 14.0658 14.9593 14.2148 14.8495 14.3246C14.7397 14.4344 14.5907 14.4961 14.4354 14.4961H1.55332C1.39803 14.4961 1.24909 14.4344 1.13928 14.3246C1.02947 14.2148 0.967773 14.0658 0.967773 13.9105V1.02842C0.967773 0.873124 1.02947 0.724187 1.13928 0.614375C1.24909 0.504563 1.39803 0.442871 1.55332 0.442871H7.99439C8.14968 0.442871 8.29862 0.504563 8.40843 0.614375C8.51825 0.724187 8.57994 0.873124 8.57994 1.02842C8.57994 1.18372 8.51825 1.33266 8.40843 1.44247C8.29862 1.55228 8.14968 1.61397 7.99439 1.61397H2.13888V13.325H13.8499V7.46948Z" fill="#999999"/>
<path d="M7.22464 8.24243L8.1908 8.10424L14.1259 2.17026C14.1819 2.11625 14.2265 2.05164 14.2572 1.9802C14.2879 1.90876 14.304 1.83192 14.3047 1.75417C14.3054 1.67642 14.2905 1.59932 14.2611 1.52735C14.2317 1.45539 14.1882 1.39001 14.1332 1.33504C14.0782 1.28006 14.0128 1.23658 13.9409 1.20714C13.8689 1.17769 13.7918 1.16288 13.7141 1.16355C13.6363 1.16423 13.5595 1.18038 13.488 1.21107C13.4166 1.24176 13.352 1.28637 13.298 1.34229L7.36166 7.27627L7.22347 8.24243H7.22464ZM14.9539 0.513153C15.1172 0.676288 15.2466 0.86999 15.335 1.08319C15.4234 1.29639 15.4688 1.52491 15.4688 1.75569C15.4688 1.98647 15.4234 2.21499 15.335 2.42819C15.2466 2.64139 15.1172 2.8351 14.9539 2.99823L8.88175 9.0704C8.79221 9.16027 8.6759 9.21863 8.55033 9.23669L6.61801 9.51307C6.52796 9.52601 6.43613 9.51778 6.34981 9.48904C6.26349 9.4603 6.18505 9.41185 6.12072 9.34752C6.05639 9.28319 6.00794 9.20475 5.9792 9.11843C5.95046 9.03211 5.94223 8.94028 5.95517 8.85023L6.23155 6.91791C6.24929 6.79248 6.30723 6.67619 6.39667 6.58649L12.47 0.514324C12.7994 0.185003 13.2462 0 13.712 0C14.1778 0 14.6245 0.185003 14.9539 0.514324V0.513153Z" fill="#999999"/>
</svg>
