<svg width="22" height="23" viewBox="0 0 22 23" fill="none" xmlns="http://www.w3.org/2000/svg">
<path d="M8.10565 19.2877V16.5732C8.10563 15.8827 8.66853 15.3217 9.36595 15.317H11.9206C12.6214 15.317 13.1894 15.8794 13.1894 16.5732V16.5732V19.2962C13.1893 19.8824 13.6619 20.3615 14.2539 20.3752H15.957C17.6548 20.3752 19.0311 19.0127 19.0311 17.3319V17.3319V9.60968C19.022 8.94845 18.7084 8.32753 18.1795 7.92361L12.3549 3.27848C11.3345 2.46967 9.88394 2.46967 8.86353 3.27848L3.06445 7.93204C2.53355 8.33432 2.21943 8.95628 2.21289 9.61811V17.3319C2.21289 19.0127 3.58922 20.3752 5.287 20.3752H6.99011C7.5968 20.3752 8.08862 19.8883 8.08862 19.2877V19.2877" stroke="#2B54FF" stroke-width="1.32775" stroke-linecap="round" stroke-linejoin="round"/>
</svg>
