<svg width="22" height="23" viewBox="0 0 22 23" fill="none" xmlns="http://www.w3.org/2000/svg">
<path fill-rule="evenodd" clip-rule="evenodd" d="M8.48992 14.3623C11.7553 14.3623 14.5462 14.8571 14.5462 16.8337C14.5462 18.8103 11.7739 19.3192 8.48992 19.3192C5.22364 19.3192 2.43359 18.8289 2.43359 16.8514C2.43359 14.8739 5.20506 14.3623 8.48992 14.3623Z" stroke="white" stroke-width="1.32775" stroke-linecap="round" stroke-linejoin="round"/>
<path fill-rule="evenodd" clip-rule="evenodd" d="M8.48977 11.5412C6.34589 11.5412 4.60742 9.80366 4.60742 7.65978C4.60742 5.51591 6.34589 3.77832 8.48977 3.77832C10.6328 3.77832 12.3712 5.51591 12.3712 7.65978C12.3792 9.7957 10.6531 11.5333 8.51721 11.5412H8.48977Z" stroke="white" stroke-width="1.32775" stroke-linecap="round" stroke-linejoin="round"/>
<path d="M14.5898 10.5337C16.007 10.3345 17.0984 9.1183 17.1011 7.64627C17.1011 6.19548 16.0433 4.99165 14.6562 4.76416" stroke="white" stroke-width="1.32775" stroke-linecap="round" stroke-linejoin="round"/>
<path d="M16.46 13.9419C17.8329 14.1464 18.7915 14.6279 18.7915 15.6193C18.7915 16.3018 18.3401 16.7443 17.6107 17.0214" stroke="white" stroke-width="1.32775" stroke-linecap="round" stroke-linejoin="round"/>
</svg>
