<svg width="145" height="45" viewBox="0 0 145 45" fill="none" xmlns="http://www.w3.org/2000/svg">
<circle cx="15.6885" cy="22.2899" r="15.63" transform="rotate(0.214453 15.6885 22.2899)" fill="#FF7F57"/>
<circle cx="37.0767" cy="22.3696" r="21.3884" transform="rotate(0.214453 37.0767 22.3696)" fill="#FFC629"/>
<path d="M22.8626 18.5099C22.8706 16.3623 23.5044 14.6394 24.7641 13.341C26.0237 12.0427 27.7394 11.3976 29.9112 11.4057C32.107 11.4139 34.3503 11.6395 36.6411 12.0824L35.8955 17.871C33.5087 17.3071 31.8688 17.0234 30.976 17.0201C29.8419 17.0158 29.2731 17.4722 29.2697 18.3891C29.2683 18.7511 29.5325 19.102 30.0621 19.4418C30.6158 19.7817 31.278 20.1461 32.0487 20.5351C32.8196 20.8999 33.5901 21.3492 34.3602 21.883C35.1305 22.3926 35.7793 23.131 36.3065 24.0982C36.8579 25.0655 37.1312 26.1766 37.1266 27.4313C37.118 29.7237 36.496 31.495 35.2607 32.7451C34.0253 33.9953 32.2735 34.6162 30.0053 34.6077C27.7612 34.5993 25.5666 34.2412 23.4216 33.5333L23.84 28.1417C26.4191 28.8994 28.2154 29.2802 29.2289 29.284C30.2424 29.2878 30.7508 28.8432 30.7541 27.9504C30.7558 27.4919 30.4799 27.0686 29.9264 26.6805C29.397 26.2924 28.7469 25.9039 27.9762 25.5149C27.2054 25.1259 26.4229 24.6766 25.6285 24.1669C24.8582 23.6572 24.1974 22.9188 23.646 21.9515C23.1187 20.9843 22.8576 19.8371 22.8626 18.5099ZM40.6785 14.1607C42.0848 12.3562 44.3685 11.4598 47.5296 11.4717C50.6906 11.4835 52.9435 12.3848 54.2881 14.1755C55.6568 15.9663 56.3338 18.8283 56.3191 22.7615C56.3095 25.3193 55.976 27.4054 55.3184 29.0197C54.685 30.6099 53.6908 31.9213 52.3356 32.9538L52.3351 33.0986L56.8942 33.5138L56.4786 38.1816L55.7909 38.179C54.0293 38.1724 52.4503 37.7563 51.0539 36.9306L47.1893 34.672C44.1731 34.6607 41.9809 33.6631 40.6129 31.6793C39.245 29.6713 38.5684 26.7007 38.5831 22.7675C38.5978 18.8343 39.2963 15.9653 40.6785 14.1607ZM50.093 22.883C50.1013 20.663 49.9259 19.1662 49.5668 18.3927C49.232 17.5952 48.5216 17.1943 47.4358 17.1903C46.374 17.1863 45.6848 17.5819 45.3682 18.377C45.0516 19.148 44.8892 20.6314 44.8809 22.8273L44.8777 23.696C44.8689 26.0366 45.0321 27.5816 45.3671 28.3309C45.7263 29.0561 46.4368 29.4208 47.4986 29.4247C48.5844 29.4288 49.2855 29.0815 49.6018 28.3829C49.9181 27.6843 50.0804 26.2371 50.0886 24.0412L50.093 22.883ZM70.1779 34.3961L58.7402 34.3533L58.8243 11.8759L65.0137 11.8991L64.9484 29.3453L70.5587 29.3663L70.1779 34.3961ZM80.8681 14.3111C82.2744 12.5066 84.5581 11.6103 87.7192 11.6221C90.8803 11.6339 93.1331 12.5352 94.4777 14.3259C95.8465 16.1167 96.5235 18.9787 96.5088 22.9119C96.4992 25.4697 96.1656 27.5558 95.508 29.1701C94.8747 30.7603 93.8804 32.0717 92.5252 33.1043L92.5247 33.2491L97.0838 33.6643L96.6682 38.332L95.9805 38.3294C94.219 38.3228 92.64 37.9067 91.2435 37.081L87.379 34.8224C84.3627 34.8111 82.1706 33.8136 80.8025 31.8297C79.4346 29.8218 78.758 26.8512 78.7727 22.9179C78.7874 18.9847 79.4859 16.1158 80.8681 14.3111ZM90.2826 23.0334C90.2909 20.8134 90.1155 19.3167 89.7565 18.5431C89.4216 17.7456 88.7113 17.3448 87.6254 17.3407C86.5637 17.3367 85.8745 17.7323 85.5578 18.5274C85.2412 19.2984 85.0788 20.7818 85.0706 22.9777L85.0673 23.8464C85.0586 26.187 85.2217 27.732 85.5567 28.4813C85.916 29.2066 86.6265 29.5712 87.6882 29.5752C88.7741 29.5792 89.4752 29.232 89.7915 28.5334C90.1078 27.8347 90.27 26.3875 90.2783 24.1917L90.2826 23.0334ZM105.292 27.1435C105.289 27.8916 105.444 28.4472 105.756 28.8103C106.068 29.1734 106.574 29.3563 107.274 29.3589C107.998 29.3616 108.493 29.1946 108.76 28.8577C109.051 28.4969 109.198 27.9183 109.201 27.122L109.257 12.0647L115.483 12.088L115.425 27.5072C115.415 30.0892 114.697 31.9687 113.268 33.1457C111.864 34.3229 109.787 34.9063 107.036 34.896C104.309 34.8858 102.273 34.299 100.926 33.1357C99.603 31.9484 98.9464 30.0758 98.9559 27.518L99.0139 12.0263L105.348 12.05L105.292 27.1435ZM125.098 34.6016L118.945 34.5786L119.029 12.1012L125.182 12.1243L125.098 34.6016ZM143.062 34.6689L128.295 34.6136L128.162 31.2831L134.837 17.7708L127.851 17.7446L127.51 12.133L142.785 12.1902L142.952 15.738L136.603 29.4687L143.082 29.4929L143.062 34.6689Z" fill="white"/>
</svg>
