<svg width="72" height="44" viewBox="0 0 72 44" fill="none" xmlns="http://www.w3.org/2000/svg">
<circle cx="15.6885" cy="21.3885" r="15.63" transform="rotate(0.214453 15.6885 21.3885)" fill="#FF7F57"/>
<circle cx="37.0767" cy="21.4683" r="21.3884" transform="rotate(0.214453 37.0767 21.4683)" fill="#FFC629"/>
<path d="M22.8626 17.6086C22.8706 15.461 23.5044 13.738 24.7641 12.4397C26.0237 11.1413 27.7394 10.4962 29.9112 10.5044C32.107 10.5126 34.3503 10.7381 36.6411 11.1811L35.8955 16.9696C33.5087 16.4057 31.8688 16.1221 30.976 16.1187C29.8419 16.1145 29.2731 16.5708 29.2697 17.4878C29.2683 17.8497 29.5325 18.2006 30.0621 18.5404C30.6158 18.8803 31.278 19.2448 32.0487 19.6337C32.8196 19.9986 33.5901 20.4479 34.3602 20.9816C35.1305 21.4913 35.7793 22.2297 36.3065 23.1969C36.8579 24.1642 37.1312 25.2752 37.1266 26.53C37.118 28.8223 36.496 30.5936 35.2607 31.8438C34.0253 33.094 32.2735 33.7148 30.0053 33.7063C27.7612 33.6979 25.5666 33.3398 23.4216 32.632L23.84 27.2403C26.4191 27.9981 28.2154 28.3788 29.2289 28.3826C30.2424 28.3864 30.7508 27.9419 30.7541 27.0491C30.7558 26.5906 30.4799 26.1673 29.9264 25.7791C29.397 25.391 28.7469 25.0025 27.9762 24.6135C27.2054 24.2246 26.4229 23.7752 25.6285 23.2655C24.8582 22.7559 24.1974 22.0174 23.646 21.0501C23.1187 20.0829 22.8576 18.9357 22.8626 17.6086ZM40.6785 13.2594C42.0848 11.4548 44.3685 10.5585 47.5296 10.5703C50.6906 10.5821 52.9435 11.4834 54.2881 13.2741C55.6568 15.0649 56.3338 17.9269 56.3191 21.8601C56.3095 24.4179 55.976 26.504 55.3184 28.1183C54.685 29.7085 53.6908 31.0199 52.3356 32.0525L52.3351 32.1973L56.8942 32.6125L56.4786 37.2802L55.7909 37.2776C54.0293 37.271 52.4503 36.8549 51.0539 36.0292L47.1893 33.7706C44.1731 33.7593 41.9809 32.7618 40.6129 30.7779C39.245 28.77 38.5684 25.7994 38.5831 21.8661C38.5978 17.9329 39.2963 15.064 40.6785 13.2594ZM50.093 21.9816C50.1013 19.7616 49.9259 18.2649 49.5668 17.4913C49.232 16.6938 48.5216 16.293 47.4358 16.2889C46.374 16.2849 45.6848 16.6805 45.3682 17.4756C45.0516 18.2466 44.8892 19.7301 44.8809 21.9259L44.8777 22.7946C44.8689 25.1352 45.0321 26.6802 45.3671 27.4295C45.7263 28.1548 46.4368 28.5194 47.4986 28.5234C48.5844 28.5274 49.2855 28.1802 49.6018 27.4816C49.9181 26.783 50.0804 25.3357 50.0886 23.1399L50.093 21.9816ZM70.1779 33.4947L58.7402 33.4519L58.8243 10.9745L65.0137 10.9977L64.9484 28.4439L70.5587 28.4649L70.1779 33.4947Z" fill="white"/>
</svg>
