<svg width="22" height="27" viewBox="0 0 22 27" fill="none" xmlns="http://www.w3.org/2000/svg">
<path fill-rule="evenodd" clip-rule="evenodd" d="M19.1568 18.734L19.1824 11.9032C19.1981 7.70222 16.9776 4.18966 13.067 3.24607L13.0705 2.31706C13.0747 1.18312 12.1628 0.26439 11.0289 0.260146C9.89498 0.255902 8.97624 1.16778 8.972 2.30172L8.96852 3.23073C5.051 4.14502 2.80421 7.64086 2.78849 11.8418L2.76292 18.6726L0.0203509 21.3947L0.0152376 22.7609L21.8738 22.8427L21.8789 21.4766L19.1568 18.734ZM10.9291 26.8993C12.4387 26.905 13.666 25.6868 13.6716 24.1772L8.20703 24.1567C8.20138 25.6664 9.4195 26.8937 10.9291 26.8993Z" fill="white"/>
<circle cx="16.7227" cy="7.52957" r="4.66205" transform="rotate(0.214453 16.7227 7.52957)" fill="#FF3643"/>
</svg>
