<svg width="26" height="27" viewBox="0 0 26 27" fill="none" xmlns="http://www.w3.org/2000/svg">
<path fill-rule="evenodd" clip-rule="evenodd" d="M9.25377 5.65776C11.4054 6.18372 13.029 7.84407 13.3894 9.88777C13.4308 10.1214 13.6472 10.2876 13.8934 10.2886C13.9216 10.2887 13.9501 10.2867 13.979 10.2822C14.2589 10.2394 14.4484 9.99355 14.4024 9.73312C13.976 7.31738 12.0572 5.35458 9.51344 4.7331C9.23904 4.66589 8.95868 4.81857 8.887 5.07423C8.81556 5.3293 8.97961 5.59077 9.25377 5.65776Z" fill="#C5C5C5"/>
<path fill-rule="evenodd" clip-rule="evenodd" d="M16.512 19.948C16.1464 19.5795 15.946 19.0907 15.9479 18.5717C15.9493 18.2189 16.0442 17.8806 16.2204 17.5853L14.6389 15.9924C13.1741 17.2854 11.2494 18.0685 9.14616 18.0606C4.59089 18.0436 0.898624 14.3246 0.915669 9.77057C0.932714 5.21656 4.65271 1.52533 9.20798 1.54238C13.7633 1.55943 17.4555 5.27841 17.4385 9.83242C17.4306 11.9351 16.633 13.853 15.3286 15.3079L16.9105 16.9008C17.2071 16.7267 17.5459 16.6342 17.8988 16.6356C18.4182 16.6375 18.9057 16.8416 19.2712 17.21L24.1126 22.0865C24.4784 22.455 24.6789 22.9435 24.677 23.4627C24.675 23.9817 24.4709 24.469 24.1023 24.8347C23.7222 25.2123 23.2237 25.3996 22.7257 25.3977C22.228 25.3958 21.731 25.2048 21.3534 24.8245L16.512 19.948ZM9.20417 2.51358C5.1849 2.49854 1.90253 5.75545 1.88749 9.77368C1.87245 13.7918 5.13035 17.0733 9.14962 17.0884C13.169 17.1034 16.4513 13.8464 16.4663 9.82825C16.4813 5.81002 13.2235 2.52862 9.20417 2.51358ZM17.2018 19.2639L22.0432 24.1403C22.4208 24.5207 23.0374 24.5227 23.4179 24.1455C23.6019 23.9626 23.7039 23.7189 23.7049 23.4595C23.7059 23.2 23.6057 22.9556 23.4231 22.7713L18.5816 17.8949C18.3987 17.7106 18.155 17.6086 17.8954 17.6076C17.6356 17.6067 17.3912 17.7069 17.2069 17.8897C17.0226 18.0726 16.9209 18.3163 16.9199 18.5757C16.9189 18.8352 17.0188 19.0796 17.2018 19.2639Z" fill="#C5C5C5"/>
<path d="M16.512 19.948L16.0393 20.4172L16.0391 20.417L16.512 19.948ZM16.2204 17.5853L16.693 17.1161L17.057 17.4827L16.7924 17.9265L16.2204 17.5853ZM14.6389 15.9924L14.1981 15.4931L14.669 15.0774L15.1115 15.5232L14.6389 15.9924ZM15.3286 15.3079L14.856 15.7772L14.4132 15.3313L14.8327 14.8633L15.3286 15.3079ZM16.9105 16.9008L17.2476 17.4752L16.802 17.7367L16.4379 17.3701L16.9105 16.9008ZM19.2712 17.21L18.7986 17.6793L18.7984 17.6791L19.2712 17.21ZM24.1126 22.0865L23.64 22.5557L24.1126 22.0865ZM24.1023 24.8347L23.633 24.3622L23.6332 24.362L24.1023 24.8347ZM21.3534 24.8245L21.826 24.3552L21.826 24.3552L21.3534 24.8245ZM17.2018 19.2639L16.7291 19.7331L17.2018 19.2639ZM22.0432 24.1403L21.5705 24.6095L21.5705 24.6095L22.0432 24.1403ZM23.4179 24.1455L23.8874 24.6178L23.8868 24.6184L23.4179 24.1455ZM23.4231 22.7713L23.8957 22.3021L23.8961 22.3025L23.4231 22.7713ZM18.5816 17.8949L19.0543 17.4256L18.5816 17.8949ZM16.0391 20.417C15.5494 19.9233 15.2793 19.2649 15.2819 18.5693L16.6139 18.5742C16.6127 18.9164 16.7435 19.2357 16.9848 19.479L16.0391 20.417ZM15.2819 18.5693C15.2837 18.0974 15.411 17.6421 15.6483 17.2442L16.7924 17.9265C16.6774 18.1192 16.6148 18.3405 16.6139 18.5742L15.2819 18.5693ZM15.7477 18.0546L14.1662 16.4616L15.1115 15.5232L16.693 17.1161L15.7477 18.0546ZM15.0796 16.4917C13.4977 17.888 11.4169 18.7351 9.14366 18.7266L9.14865 17.3946C11.0818 17.4018 12.8504 16.6827 14.1981 15.4931L15.0796 16.4917ZM9.14366 18.7266C4.22074 18.7082 0.231243 14.6901 0.249666 9.76808L1.58167 9.77307C1.566 13.9591 4.96103 17.3789 9.14865 17.3946L9.14366 18.7266ZM0.249666 9.76808C0.268089 4.84607 4.28756 0.857951 9.21048 0.876377L9.20549 2.20838C5.01787 2.19271 1.59734 5.58705 1.58167 9.77307L0.249666 9.76808ZM9.21048 0.876377C14.1334 0.894804 18.1229 4.9129 18.1045 9.83491L16.7725 9.82992C16.7881 5.64391 13.3931 2.22406 9.20549 2.20838L9.21048 0.876377ZM18.1045 9.83491C18.096 12.1077 17.2331 14.1813 15.8245 15.7525L14.8327 14.8633C16.0328 13.5247 16.7652 11.7624 16.7725 9.82992L18.1045 9.83491ZM15.8012 14.8386L17.3831 16.4315L16.4379 17.3701L14.856 15.7772L15.8012 14.8386ZM16.5734 16.3264C16.9731 16.0918 17.4292 15.9678 17.9013 15.9696L17.8963 17.3016C17.6626 17.3007 17.4411 17.3616 17.2476 17.4752L16.5734 16.3264ZM17.9013 15.9696C18.5972 15.9722 19.254 16.247 19.744 16.741L18.7984 17.6791C18.5574 17.4362 18.2391 17.3029 17.8963 17.3016L17.9013 15.9696ZM19.7438 16.7408L24.5853 21.6172L23.64 22.5557L18.7986 17.6793L19.7438 16.7408ZM24.5853 21.6172C25.0754 22.111 25.3456 22.7692 25.343 23.4652L24.011 23.4603C24.0122 23.1179 23.8815 22.7989 23.64 22.5557L24.5853 21.6172ZM25.343 23.4652C25.3404 24.1609 25.0653 24.8174 24.5714 25.3075L23.6332 24.362C23.8765 24.1206 24.0097 23.8024 24.011 23.4603L25.343 23.4652ZM24.5716 25.3073C24.0604 25.815 23.3897 26.0662 22.7232 26.0637L22.7282 24.7317C23.0578 24.7329 23.384 24.6095 23.633 24.3622L24.5716 25.3073ZM22.7232 26.0637C22.057 26.0612 21.3883 25.805 20.8808 25.2937L21.826 24.3552C22.0737 24.6047 22.3991 24.7305 22.7282 24.7317L22.7232 26.0637ZM20.8808 25.2937L16.0393 20.4172L16.9846 19.4788L21.826 24.3552L20.8808 25.2937ZM9.20168 3.17958C5.55005 3.16591 2.56715 6.12594 2.55349 9.77618L1.22149 9.77119C1.2379 5.38495 4.81975 1.83116 9.20666 1.84758L9.20168 3.17958ZM2.55349 9.77618C2.53983 13.4263 5.50049 16.4087 9.15211 16.4224L9.14712 17.7544C4.7602 17.7379 1.20507 14.1573 1.22149 9.77119L2.55349 9.77618ZM9.15211 16.4224C12.8038 16.436 15.7866 13.4759 15.8003 9.82576L17.1323 9.83074C17.1159 14.2169 13.5341 17.7708 9.14712 17.7544L9.15211 16.4224ZM15.8003 9.82576C15.814 6.17552 12.8534 3.19325 9.20168 3.17958L9.20666 1.84758C13.5937 1.864 17.1487 5.44451 17.1323 9.83074L15.8003 9.82576ZM17.6744 18.7946L22.5158 23.6711L21.5705 24.6095L16.7291 19.7331L17.6744 18.7946ZM22.5158 23.6711C22.6341 23.7902 22.8293 23.7912 22.949 23.6725L23.8868 24.6184C23.2456 25.2542 22.2075 25.2511 21.5705 24.6095L22.5158 23.6711ZM22.9484 23.6731C23.0074 23.6144 23.0386 23.5397 23.0389 23.457L24.3709 23.4619C24.3693 23.8981 24.1964 24.3107 23.8874 24.6178L22.9484 23.6731ZM23.0389 23.457C23.0392 23.3742 23.0086 23.2992 22.95 23.2402L23.8961 22.3025C24.2027 22.6119 24.3726 23.0258 24.3709 23.4619L23.0389 23.457ZM22.9504 23.2406L18.109 18.3641L19.0543 17.4256L23.8957 22.3021L22.9504 23.2406ZM18.109 18.3641C18.0505 18.3052 17.9758 18.274 17.893 18.2736L17.8979 16.9416C18.3341 16.9433 18.747 17.1161 19.0543 17.4256L18.109 18.3641ZM17.893 18.2736C17.8097 18.2733 17.7349 18.304 17.676 18.3625L16.7378 17.417C17.0474 17.1097 17.4615 16.94 17.8979 16.9416L17.893 18.2736ZM17.676 18.3625C17.6174 18.4206 17.5862 18.495 17.5859 18.5782L16.2539 18.5732C16.2555 18.1375 16.4278 17.7246 16.7378 17.417L17.676 18.3625ZM17.5859 18.5782C17.5856 18.6614 17.6162 18.7361 17.6744 18.7946L16.7291 19.7331C16.4214 19.4232 16.2523 19.0089 16.2539 18.5732L17.5859 18.5782Z" fill="#C5C5C5"/>
</svg>
